<svg width="403" height="291" viewBox="0 0 403 291" fill="none" xmlns="http://www.w3.org/2000/svg">
<g clip-path="url(#clip0_121_381)">
<path d="M251.163 290.845C255.131 282.279 259.095 273.585 260.817 264.303C262.538 255.021 261.816 244.947 256.885 236.896C251.954 228.846 242.244 223.386 232.979 225.206C225.369 226.701 219.258 232.693 215.68 239.572C212.102 246.451 210.666 254.21 209.275 261.838C208.825 253.173 208.349 244.367 205.469 236.182C202.59 227.996 196.92 220.367 188.84 217.2C180.759 214.032 170.247 216.523 165.988 224.084C159.988 234.736 167.944 249.677 161.045 259.77C159.861 249.646 149.271 241.647 139.206 243.275C129.141 244.903 121.615 255.833 123.685 265.814C124.917 271.753 128.97 276.804 133.816 280.454C138.662 284.103 144.297 288.333 149.873 290.725L251.163 290.845Z" fill="#F2F2F2"/>
<path d="M128.97 250.428C136.965 253.222 145.033 256.048 152.332 260.416C158.874 264.33 164.699 269.601 168.378 276.351C170.394 279.972 171.591 283.991 171.884 288.125C171.937 288.989 173.29 288.995 173.237 288.125C172.764 280.427 169.011 273.382 163.815 267.811C158.118 261.703 150.736 257.531 143.114 254.294C138.594 252.375 133.962 250.744 129.329 249.125C128.506 248.837 128.152 250.143 128.97 250.428Z" fill="white"/>
<path d="M175.086 218.542C179.998 226.723 183.931 235.453 186.805 244.552C189.685 253.647 191.499 263.047 192.211 272.561C192.605 277.886 192.648 283.232 192.34 288.564C192.289 289.433 193.642 289.43 193.692 288.564C194.238 278.951 193.656 269.308 191.958 259.831C190.263 250.355 187.478 241.107 183.657 232.271C181.512 227.308 179.039 222.493 176.254 217.859C176.16 217.711 176.012 217.605 175.842 217.563C175.671 217.522 175.491 217.548 175.34 217.636C175.188 217.725 175.077 217.869 175.03 218.038C174.982 218.207 175.002 218.387 175.086 218.542Z" fill="white"/>
<path d="M241.285 226.309C234.337 241.916 229.447 258.359 226.739 275.226C225.979 279.963 225.39 284.724 224.974 289.508C224.898 290.375 226.251 290.37 226.326 289.508C227.799 272.679 231.437 256.11 237.151 240.212C238.756 235.742 240.523 231.335 242.453 226.991C242.803 226.203 241.638 225.514 241.285 226.309Z" fill="white"/>
<path d="M47.8213 289.834C33.9642 286.228 21.7193 278.076 13.0494 266.683C4.37953 255.291 -0.213235 241.318 0.00734617 227.004C0.0623003 223.438 0.437363 219.797 1.93688 216.561C3.4364 213.325 6.22173 210.526 9.70587 209.759C13.5083 208.922 17.5207 210.633 20.3544 213.302C23.1881 215.971 25.0461 219.493 26.7555 222.99C37.052 244.055 44.875 266.657 47.8039 289.919L47.8213 289.834Z" fill="#F2F2F2"/>
<path d="M7.98084 210.462L15.1972 226.853L22.4135 243.245C24.6989 248.437 26.98 253.63 29.3422 258.787C31.6837 263.899 34.1054 268.975 36.6889 273.97C39.2688 278.957 42.0107 283.863 44.9869 288.625C45.3575 289.218 45.7318 289.809 46.1097 290.398C46.3712 290.805 47.025 290.427 46.7616 290.017C43.7283 285.289 40.9333 280.414 38.3119 275.447C35.6877 270.475 33.2349 265.415 30.8728 260.314C28.498 255.186 26.2146 250.016 23.9373 244.845C21.5401 239.401 19.1434 233.957 16.7471 228.512L9.53076 212.12L8.63272 210.081C8.43743 209.637 7.78673 210.021 7.9808 210.462L7.98084 210.462Z" fill="white"/>
<path d="M44.811 289.948C36.643 291.816 28.0842 290.888 20.5065 287.313C12.9289 283.738 6.7713 277.723 3.02076 270.232C2.08629 268.366 1.29782 266.374 1.20244 264.29C1.10707 262.205 1.79731 260 3.39915 258.661C5.14732 257.2 7.69244 257.006 9.88447 257.627C12.0765 258.248 13.9922 259.575 15.824 260.929C26.8579 269.087 37.0229 278.71 44.8249 289.997L44.811 289.948Z" fill="#F2F2F2"/>
<path d="M2.69334 259.492L10.8663 266.054L19.0392 272.617C21.6276 274.695 24.2143 276.776 26.8333 278.816C29.4293 280.838 32.0574 282.82 34.7474 284.716C37.4335 286.609 40.1818 288.416 43.013 290.085C43.3656 290.293 43.7194 290.499 44.0746 290.702C44.3204 290.843 44.5577 290.471 44.3101 290.329C41.4588 288.693 38.6911 286.916 35.989 285.045C33.284 283.172 30.6441 281.207 28.0403 279.196C25.4226 277.174 22.8411 275.107 20.2622 273.036C17.5476 270.857 14.8332 268.677 12.1189 266.497L3.94601 259.935L2.92894 259.118C2.70776 258.94 2.47352 259.315 2.69335 259.492H2.69334Z" fill="white"/>
<path d="M392.675 291H19.6895C19.6189 291 19.5489 290.986 19.4836 290.96C19.4183 290.933 19.3589 290.893 19.3089 290.843C19.2589 290.794 19.2192 290.734 19.1921 290.669C19.1651 290.604 19.1511 290.534 19.1511 290.463C19.1511 290.393 19.1651 290.323 19.1921 290.258C19.2192 290.192 19.2589 290.133 19.3089 290.083C19.3589 290.033 19.4183 289.994 19.4836 289.967C19.5489 289.94 19.6189 289.926 19.6895 289.927H392.675C392.818 289.927 392.954 289.983 393.055 290.084C393.155 290.184 393.212 290.321 393.212 290.463C393.212 290.606 393.155 290.742 393.055 290.843C392.954 290.943 392.818 291 392.675 291Z" fill="#3F3D56"/>
<path d="M382.877 237.231H357.625C357.625 237.53 357.506 237.816 357.295 238.028C357.083 238.239 356.797 238.358 356.498 238.358H331.71C331.36 238.621 331.041 238.924 330.759 239.259C329.911 240.27 329.448 241.547 329.451 242.865V243.767C329.452 245.261 330.046 246.693 331.102 247.75C332.159 248.806 333.592 249.4 335.087 249.401H382.877C384.371 249.399 385.804 248.805 386.86 247.749C387.917 246.693 388.511 245.26 388.513 243.767V242.865C388.51 241.371 387.916 239.94 386.86 238.883C385.803 237.827 384.371 237.233 382.877 237.231Z" fill="#F2F2F2"/>
<path d="M362.136 249.177H356.275V290.644H362.136V249.177Z" fill="#F2F2F2"/>
<path d="M378.817 290.438C378.817 291.072 369.936 290.683 358.98 290.683C348.024 290.683 339.142 291.072 339.142 290.438C339.142 289.805 348.024 284.785 358.98 284.785C369.936 284.785 378.817 289.805 378.817 290.438Z" fill="#F2F2F2"/>
<path d="M381.773 238.529L380.79 232.381C380.665 231.606 380.238 230.913 379.603 230.452C378.967 229.992 378.175 229.802 377.399 229.925L367.26 231.543L349.893 234.315L344.244 235.216H356.498C356.797 235.216 357.083 235.335 357.295 235.546C357.506 235.758 357.625 236.044 357.625 236.343V237.231C357.625 237.53 357.506 237.816 357.295 238.028C357.083 238.239 356.797 238.358 356.498 238.358H325.313C324.877 238.561 324.5 238.871 324.217 239.259C323.977 239.575 323.804 239.935 323.708 240.32C323.612 240.704 323.595 241.104 323.658 241.495L323.937 243.244L324.276 245.367L324.641 247.647C324.765 248.42 325.191 249.113 325.824 249.572C326.458 250.032 327.249 250.221 328.022 250.099L336.079 248.815L359.316 245.105L379.315 241.914C380.089 241.788 380.781 241.362 381.241 240.728C381.702 240.094 381.893 239.303 381.773 238.529Z" fill="#BAD3F7"/>
<path d="M335.461 239.259C335.165 238.866 334.772 238.555 334.321 238.358H325.7C325.247 238.554 324.852 238.865 324.555 239.259C324.154 239.773 323.936 240.406 323.937 241.058V275.408C323.939 276.191 324.25 276.941 324.804 277.494C325.357 278.048 326.108 278.359 326.891 278.36H333.126C333.909 278.359 334.659 278.048 335.213 277.494C335.766 276.941 336.078 276.191 336.079 275.408V241.058C336.079 240.406 335.862 239.773 335.461 239.259Z" fill="#BAD3F7"/>
<path d="M354.226 180.754L354.167 180.678L350.299 175.913C350.093 175.658 349.844 175.44 349.564 175.269C349.415 175.168 349.255 175.086 349.086 175.025C348.839 174.927 348.579 174.863 348.315 174.836C348.138 174.817 347.96 174.814 347.783 174.827C347.779 174.827 347.776 174.829 347.774 174.832C347.176 174.876 346.606 175.102 346.142 175.481L338.202 181.917L328 190.193L312.774 202.543L311.665 203.444H330.93L332.044 202.543L335.727 199.554L335.989 199.347L353.779 184.919L353.793 184.91C354.159 184.615 354.448 184.236 354.636 183.806C354.76 183.524 354.839 183.224 354.87 182.918C354.911 182.532 354.875 182.143 354.765 181.771C354.654 181.4 354.471 181.054 354.226 180.754Z" fill="#BAD3F7"/>
<path d="M354.167 180.678C353.918 179.463 353.366 178.331 352.562 177.387C351.76 176.436 350.728 175.707 349.564 175.269C349.383 175.201 349.208 175.138 349.027 175.088C348.62 174.967 348.204 174.88 347.783 174.827C347.779 174.827 347.776 174.829 347.774 174.832C345.877 174.612 343.969 175.139 342.454 176.301L328.721 186.794C328.429 187.055 328.193 187.371 328.027 187.725C327.86 188.079 327.767 188.463 327.752 188.854C327.73 189.313 327.815 189.771 328 190.193C328.045 190.287 328.094 190.382 328.148 190.472C328.254 190.655 328.381 190.825 328.527 190.977L330.727 193.447L335.844 199.185L335.988 199.347L336.318 199.721C336.58 200.008 336.896 200.241 337.248 200.405C337.6 200.57 337.981 200.664 338.369 200.681C338.757 200.698 339.145 200.638 339.51 200.505C339.875 200.372 340.211 200.169 340.497 199.906L352.341 187.186C352.956 186.526 353.444 185.757 353.779 184.919C354.32 183.573 354.455 182.099 354.167 180.678Z" fill="#2F2E41"/>
<path d="M359.403 164.356C371.883 164.356 382 154.242 382 141.765C382 129.288 371.883 119.173 359.403 119.173C346.923 119.173 336.805 129.288 336.805 141.765C336.805 154.242 346.923 164.356 359.403 164.356Z" fill="#BAD3F7"/>
<path d="M367.877 235.419L367.26 231.543L366.894 229.267C366.77 228.493 366.344 227.8 365.709 227.34C365.074 226.881 364.283 226.692 363.508 226.815L347.084 229.433L342.63 230.145L341.728 230.29V235.216H356.498C356.797 235.216 357.083 235.335 357.295 235.546C357.506 235.758 357.625 236.044 357.625 236.343V237.231C357.625 237.53 357.506 237.816 357.295 238.028C357.083 238.239 356.797 238.358 356.498 238.358H309.758C309.758 238.367 309.763 238.376 309.763 238.385L310.042 240.134L310.746 244.533C310.87 245.306 311.295 245.998 311.929 246.458C312.563 246.917 313.353 247.107 314.127 246.985L322.184 245.7L323.937 245.421L324.275 245.367L336.079 243.483L344.108 242.198L356.849 240.165L357.039 240.134L365.42 238.8C366.194 238.676 366.887 238.25 367.347 237.617C367.808 236.983 367.998 236.193 367.877 235.419Z" fill="#BAD3F7"/>
<path d="M390.158 218.841C390.158 237.258 388.287 248.274 359.433 245.119C359.392 245.114 359.356 245.11 359.316 245.105C354.169 244.597 349.079 243.624 344.108 242.198C341.525 241.444 339.014 240.46 336.606 239.259C336.038 238.971 335.493 238.669 334.956 238.358H356.498C356.797 238.358 357.083 238.239 357.295 238.028C357.506 237.816 357.625 237.53 357.625 237.231V236.343C357.625 236.044 357.506 235.758 357.295 235.546C357.083 235.335 356.797 235.216 356.498 235.216H341.728V206.748C341.727 205.872 341.378 205.033 340.759 204.413C340.139 203.794 339.299 203.445 338.423 203.444H326.408C326.512 203.147 326.615 202.845 326.728 202.543C327.855 199.424 329.191 196.386 330.727 193.447C332.831 189.366 335.335 185.504 338.202 181.917C340.199 179.418 342.44 177.124 344.893 175.07C349.415 171.338 354.338 169.031 359.334 169.031C377.755 169.031 390.158 200.424 390.158 218.841Z" fill="#2F2E41"/>
<path d="M359.878 150.138L359.901 149.294C358.33 149.25 356.945 149.151 355.904 148.391C355.609 148.163 355.367 147.875 355.193 147.545C355.02 147.215 354.919 146.852 354.899 146.48C354.881 146.252 354.915 146.024 354.999 145.812C355.084 145.6 355.216 145.41 355.386 145.258C356.077 144.675 357.188 144.863 357.999 145.235L358.697 145.555L357.357 135.766L356.521 135.88L357.66 144.208C357.194 144.034 356.691 143.981 356.199 144.052C355.706 144.123 355.239 144.316 354.841 144.613C354.572 144.847 354.362 145.14 354.226 145.469C354.089 145.798 354.031 146.154 354.055 146.509C354.08 147.009 354.213 147.498 354.447 147.941C354.68 148.384 355.008 148.77 355.406 149.073C356.744 150.05 358.481 150.099 359.878 150.138Z" fill="#2F2E41"/>
<path d="M352.383 136.599H347.835V137.443H352.383V136.599Z" fill="#2F2E41"/>
<path d="M366.739 136.599H362.191V137.443H366.739V136.599Z" fill="#2F2E41"/>
<path d="M377.438 135.557C375.68 132.913 372.588 131.791 369.538 131.519C366.106 131.212 362.789 131.873 359.438 132.516C355.75 133.224 351.847 133.886 348.13 132.991C346.486 132.611 344.95 131.863 343.638 130.803C342.325 129.742 341.27 128.398 340.553 126.871C339.192 123.892 338.899 120.536 339.723 117.366C340.594 113.995 342.755 111.028 345.376 108.788C350.724 104.215 357.961 102.16 364.923 102.354C371.858 102.533 378.561 104.889 384.081 109.088C389.612 113.44 393.503 119.536 395.121 126.383C396.812 133.174 396.261 140.33 393.55 146.782C392.026 150.315 389.823 153.5 388.123 156.944C386.54 160.15 385.321 163.879 386.306 167.455C387.17 170.593 389.708 173.382 392.893 174.234C394.342 174.614 395.876 174.513 397.263 173.947C398.65 173.381 399.816 172.38 400.585 171.094C402.177 168.584 402.215 165.297 399.824 163.27C399.221 162.75 398.519 162.359 397.76 162.119C397.002 161.88 396.202 161.797 395.41 161.876C394.618 161.955 393.851 162.194 393.154 162.579C392.458 162.964 391.847 163.486 391.358 164.114C390.389 165.374 389.954 166.965 390.15 168.542C390.268 169.339 389.048 169.683 388.929 168.879C388.643 167.211 388.96 165.495 389.822 164.039C390.683 162.582 392.034 161.478 393.634 160.925C395.233 160.371 396.978 160.403 398.556 161.015C400.134 161.627 401.444 162.779 402.252 164.266C403.693 166.976 402.915 170.245 401.085 172.561C400.141 173.795 398.861 174.731 397.399 175.257C395.936 175.782 394.354 175.876 392.84 175.526C389.508 174.756 386.783 172.109 385.501 168.999C384.075 165.536 384.728 161.671 386.119 158.311C387.623 154.678 389.855 151.421 391.621 147.92C393.22 144.757 394.237 141.332 394.625 137.809C395.4 130.735 393.794 123.604 390.061 117.544C386.255 111.579 380.447 107.165 373.679 105.097C366.96 102.939 359.706 103.13 353.111 105.641C346.674 108.176 340.459 113.701 340.534 121.122C340.566 124.292 341.743 127.525 344.171 129.639C347.074 132.166 351.115 132.382 354.764 131.988C358.436 131.591 362.001 130.519 365.689 130.245C368.896 130.007 372.357 130.255 375.221 131.848C376.554 132.591 377.69 133.644 378.531 134.918C378.984 135.599 377.887 136.234 377.438 135.557V135.557Z" fill="#2F2E41"/>
<path d="M372.837 187.213L371.047 185.969L367.715 183.657C367.071 183.212 366.276 183.04 365.505 183.179C364.734 183.319 364.05 183.758 363.603 184.401L352.742 200.028L342.63 214.577L341.728 215.875V235.216H341.809C342.512 235.147 343.166 234.827 343.653 234.315C343.757 234.207 343.853 234.091 343.937 233.968L347.084 229.433L354.861 218.242L362.922 206.649L363.689 205.544L373.572 191.324C373.625 191.249 373.675 191.17 373.72 191.089C373.765 191.012 373.806 190.932 373.842 190.851C374.125 190.222 374.18 189.515 373.996 188.85C373.813 188.186 373.403 187.607 372.837 187.213Z" fill="#BAD3F7"/>
<path d="M372.868 181.029C372.55 180.82 372.215 180.636 371.867 180.479C370.327 179.774 368.591 179.62 366.95 180.043C365.31 180.467 363.865 181.442 362.859 182.805L352.598 196.715C352.392 197.046 352.254 197.415 352.192 197.8C352.129 198.185 352.145 198.578 352.236 198.958C352.327 199.337 352.493 199.694 352.724 200.009C352.955 200.323 353.246 200.588 353.581 200.789L362.922 206.649L363.04 206.721L363.508 207.014C364.179 207.419 364.983 207.542 365.744 207.357C366.506 207.171 367.162 206.691 367.571 206.022L374.816 191.644L374.938 191.405L374.942 191.401L375.388 190.504C376.202 188.89 376.395 187.034 375.931 185.287C375.466 183.541 374.376 182.025 372.868 181.029Z" fill="#2F2E41"/>
<path d="M310.042 238.358V272.293C310.043 273.076 310.355 273.826 310.908 274.38C311.462 274.933 312.212 275.245 312.995 275.246H319.231C320.013 275.245 320.764 274.933 321.317 274.38C321.871 273.826 322.183 273.076 322.184 272.293V238.358H310.042Z" fill="#BAD3F7"/>
<path d="M356.498 234.315H342.63V206.748C342.629 205.633 342.185 204.564 341.396 203.776C340.608 202.987 339.539 202.544 338.423 202.543H286.995C285.879 202.543 284.809 202.986 284.019 203.774C283.229 204.563 282.785 205.632 282.784 206.748V235.054C282.785 236.17 283.229 237.239 284.019 238.028C284.809 238.816 285.879 239.259 286.995 239.259H356.498C356.57 239.259 356.638 239.255 356.705 239.25C356.768 239.246 356.832 239.232 356.895 239.223C357.355 239.13 357.768 238.881 358.066 238.518C358.363 238.155 358.526 237.7 358.527 237.231V236.343C358.527 235.805 358.313 235.289 357.932 234.909C357.552 234.528 357.036 234.315 356.498 234.315ZM356.498 238.358H286.995C286.118 238.357 285.277 238.009 284.657 237.39C284.036 236.771 283.687 235.93 283.686 235.054V206.748C283.687 205.871 284.036 205.031 284.657 204.412C285.277 203.792 286.118 203.444 286.995 203.444H338.423C339.299 203.445 340.139 203.794 340.759 204.413C341.378 205.032 341.727 205.872 341.728 206.748V235.216H356.498C356.797 235.216 357.083 235.335 357.295 235.546C357.506 235.758 357.625 236.044 357.625 236.343V237.231C357.625 237.53 357.506 237.816 357.295 238.028C357.083 238.239 356.797 238.358 356.498 238.358Z" fill="#E3E3E3"/>
<path d="M312.707 224.368C314.622 224.368 316.174 222.816 316.174 220.901C316.174 218.987 314.622 217.435 312.707 217.435C310.793 217.435 309.24 218.987 309.24 220.901C309.24 222.816 310.793 224.368 312.707 224.368Z" fill="#BAD3F7"/>
<path d="M55.002 162.868C68.3281 162.868 79.1311 152.068 79.1311 138.745C79.1311 125.422 68.3281 114.622 55.002 114.622C41.6758 114.622 30.8729 125.422 30.8729 138.745C30.8729 152.068 41.6758 162.868 55.002 162.868Z" fill="#BAD3F7"/>
<path d="M50.2983 229.492H43.6438C42.8668 229.493 42.1219 229.802 41.5725 230.351C41.023 230.9 40.7141 231.645 40.7133 232.422V287.866C40.7141 288.643 41.023 289.388 41.5725 289.937C42.1219 290.486 42.8668 290.795 43.6438 290.796H50.2983C51.0753 290.795 51.8202 290.486 52.3697 289.937C52.9191 289.388 53.2281 288.643 53.2288 287.866V232.422C53.2281 231.645 52.9191 230.9 52.3697 230.351C51.8203 229.802 51.0753 229.493 50.2983 229.492Z" fill="#2F2E41"/>
<path d="M64.3603 229.492H57.7059C56.9289 229.493 56.1839 229.802 55.6345 230.351C55.0851 230.9 54.7761 231.645 54.7753 232.422V287.866C54.7761 288.643 55.0851 289.388 55.6345 289.937C56.1839 290.486 56.9289 290.795 57.7059 290.796H64.3603C64.7451 290.796 65.1262 290.72 65.4818 290.573C65.8374 290.426 66.1604 290.21 66.4325 289.938C66.7047 289.666 66.9205 289.343 67.0678 288.987C67.2151 288.632 67.2909 288.251 67.2908 287.866V232.422C67.2908 232.037 67.2151 231.656 67.0678 231.3C66.9205 230.945 66.7047 230.622 66.4325 230.35C66.1604 230.078 65.8373 229.862 65.4818 229.715C65.1262 229.568 64.7451 229.492 64.3603 229.492Z" fill="#2F2E41"/>
<path d="M69.1798 175.517C66.8479 172.504 63.6321 170.295 59.9824 169.199C56.3328 168.104 52.4318 168.176 48.8253 169.406C45.2189 170.637 42.0874 172.963 39.8689 176.061C37.6504 179.158 36.456 182.872 36.4527 186.681V235.784C36.4509 235.934 36.463 236.083 36.4888 236.23C36.5958 236.982 36.9702 237.669 37.5432 238.167C38.1163 238.664 38.8496 238.939 39.6086 238.939H69.8473C70.6838 238.938 71.4855 238.605 72.077 238.013C72.6685 237.422 73.0015 236.62 73.0033 235.784V186.681C73.0089 182.638 71.6632 178.708 69.1798 175.517Z" fill="#2F2E41"/>
<path d="M75.3784 149.408L75.3533 148.507C77.0308 148.46 78.5097 148.355 79.621 147.543C79.936 147.3 80.195 146.992 80.3803 146.64C80.5655 146.288 80.6728 145.9 80.6946 145.502C80.7142 145.26 80.6774 145.016 80.5873 144.789C80.4971 144.563 80.356 144.361 80.1749 144.198C79.4372 143.575 78.2502 143.777 77.385 144.173L76.639 144.515L78.0697 134.062L78.963 134.185L77.7461 143.076C78.9216 142.731 80.0109 142.879 80.7569 143.509C81.0434 143.759 81.2681 144.072 81.4136 144.423C81.5591 144.775 81.6214 145.155 81.5957 145.534C81.5693 146.068 81.4266 146.59 81.1773 147.062C80.9281 147.535 80.5784 147.948 80.1529 148.272C78.725 149.315 76.8694 149.367 75.3784 149.408Z" fill="#2F2E41"/>
<path d="M72.9084 134.952H68.0521V135.853H72.9084V134.952Z" fill="#2F2E41"/>
<path d="M47.9269 176.211C47.6666 175.927 47.3525 175.697 47.0026 175.535C46.6528 175.374 46.2743 175.283 45.8891 175.269L40.6458 175.053L39.2435 174.994C38.4671 174.962 37.7099 175.239 37.1378 175.765C36.5656 176.291 36.2252 177.021 36.1912 177.797L35.3617 197.774L33.8964 233.197C33.8665 233.936 34.117 234.659 34.5977 235.222C35.0784 235.784 35.7538 236.145 36.4888 236.23C36.561 236.239 36.6286 236.244 36.7008 236.248L40.7134 236.415L43.3509 236.523C43.5621 236.533 43.7737 236.519 43.982 236.483C44.5328 236.384 45.0442 236.131 45.4563 235.753C45.7406 235.492 45.9702 235.178 46.132 234.829C46.2937 234.479 46.3843 234.1 46.3985 233.715L46.5744 229.492L47.8684 198.252L48.6979 178.316C48.7303 177.54 48.4529 176.783 47.9269 176.211Z" fill="#BAD3F7"/>
<path d="M44.0857 171.839C43.5254 171.721 42.9541 171.662 42.3814 171.663C40.1701 171.666 38.0501 172.545 36.4865 174.108C34.9229 175.671 34.0433 177.791 34.0406 180.002V195.326C34.0419 195.812 34.1632 196.289 34.3937 196.716C34.6242 197.143 34.9567 197.506 35.3617 197.774C35.6919 197.991 36.0633 198.139 36.4527 198.207C36.6236 198.239 36.7972 198.256 36.9712 198.256H47.7916C47.8173 198.257 47.843 198.256 47.8684 198.252C48.6316 198.232 49.357 197.915 49.8901 197.369C50.4231 196.823 50.7217 196.09 50.7221 195.326V180.002C50.7197 178.087 50.059 176.23 48.8509 174.744C47.6427 173.258 45.9603 172.232 44.0857 171.839Z" fill="#2F2E41"/>
<path d="M101.876 215.483C101.169 215.118 100.613 214.515 100.308 213.78C100.003 213.045 99.9671 212.226 100.208 211.467L102.773 203.304L102.024 202.682L82.3357 186.397L69.1799 175.517L67.5794 174.192C66.9809 173.696 66.2101 173.459 65.4365 173.531C64.6629 173.604 63.9499 173.981 63.4542 174.579L59.2116 179.709C58.9656 180.005 58.7805 180.346 58.6668 180.714C58.5531 181.081 58.5131 181.468 58.5491 181.851C58.5852 182.234 58.6965 182.606 58.8767 182.947C59.0569 183.287 59.3024 183.588 59.5993 183.833L73.0033 194.921L74.5271 196.178L102.331 219.175C102.845 219.602 103.49 219.84 104.159 219.85C104.827 219.86 105.479 219.641 106.005 219.229C106.151 219.115 106.284 218.987 106.402 218.846C106.421 218.827 106.439 218.808 106.456 218.787L106.993 218.138L101.876 215.483Z" fill="#BAD3F7"/>
<path d="M81.3889 183.269L69.5272 173.565C68.6797 172.871 67.7038 172.351 66.6552 172.035C65.6066 171.718 64.5059 171.611 63.4159 171.719C62.326 171.828 61.2681 172.15 60.3026 172.668C59.3372 173.185 58.4832 173.887 57.7892 174.735C57.0953 175.582 56.5751 176.558 56.2584 177.606C55.9416 178.654 55.8345 179.755 55.9432 180.844C56.1626 183.045 57.2474 185.068 58.9591 186.47L70.821 196.174C71.3435 196.602 71.9979 196.836 72.6732 196.837C73.3486 196.837 74.0035 196.605 74.5271 196.178C74.6831 196.058 74.8239 195.918 74.9462 195.764L81.7992 187.394C82.0418 187.1 82.2241 186.761 82.3357 186.397C82.5045 185.841 82.5046 185.247 82.3361 184.69C82.1676 184.133 81.838 183.639 81.3889 183.269Z" fill="#2F2E41"/>
<path d="M48.9527 142.829C47.6962 140.731 46.7129 138.418 47.1796 135.932C47.5964 133.712 49.1946 131.983 51.4928 131.756C52.8767 131.619 54.2541 131.988 55.6059 132.229C56.7139 132.424 57.8399 132.496 58.9637 132.446C61.2251 132.344 63.4419 131.782 65.479 130.795C67.5468 129.827 69.3834 128.429 70.8654 126.692C72.3473 124.956 73.4402 122.923 74.0706 120.729C75.442 115.738 74.4238 110.07 71.167 106.007L72.2973 105.709L70.8256 110.543C70.7969 110.642 70.7461 110.733 70.6771 110.81C70.608 110.887 70.5225 110.947 70.4268 110.985C70.3312 111.024 70.2281 111.041 70.1251 111.034C70.0221 111.028 69.9219 110.998 69.8322 110.947C67.1649 109.262 64.183 108.136 61.0674 107.638C57.9518 107.14 54.7675 107.28 51.7077 108.05C49.9788 108.484 48.3088 109.126 46.7344 109.962C45.9662 110.371 45.282 109.204 46.0517 108.795C49.0089 107.252 52.2482 106.326 55.5738 106.071C58.8994 105.817 62.2422 106.239 65.3998 107.313C67.1981 107.926 68.9156 108.754 70.5148 109.779L69.5214 110.183L70.9931 105.349C71.0259 105.236 71.0874 105.134 71.1716 105.052C71.2559 104.969 71.3599 104.91 71.4738 104.88C71.5876 104.85 71.7072 104.85 71.8211 104.88C71.9349 104.91 72.0391 104.969 72.1234 105.051C73.6381 106.972 74.7482 109.18 75.3868 111.541C76.0254 113.902 76.1792 116.368 75.8389 118.791C75.5102 121.178 74.6803 123.469 73.4039 125.514C72.1274 127.558 70.4331 129.31 68.4321 130.653C66.4331 132.002 64.1863 132.942 61.8219 133.417C59.4574 133.892 57.0221 133.894 54.657 133.422C53.3333 133.167 51.8322 132.803 50.5335 133.357C50.0624 133.585 49.6472 133.913 49.3173 134.318C48.9874 134.724 48.7509 135.197 48.6246 135.705C47.8886 138.198 49.1409 140.565 50.42 142.638L48.9527 142.829Z" fill="#2F2E41"/>
<path d="M136.979 192.771L114.675 179.866C114.12 179.545 113.499 179.353 112.859 179.304C112.22 179.255 111.577 179.35 110.979 179.582C110.381 179.814 109.843 180.178 109.404 180.646C108.965 181.114 108.638 181.675 108.445 182.287L102.024 202.682L99.3463 211.197C99.0429 212.157 99.0887 213.194 99.4756 214.125C99.8624 215.055 100.566 215.819 101.461 216.281L106.402 218.846L122.525 227.207C123.134 227.524 123.812 227.689 124.499 227.689C125.007 227.688 125.51 227.598 125.987 227.423L126.019 227.41C126.582 227.194 127.094 226.863 127.521 226.438C127.948 226.012 128.281 225.502 128.498 224.94L138.832 198.008C139.2 197.058 139.216 196.007 138.876 195.046C138.536 194.086 137.863 193.278 136.979 192.771ZM137.989 197.688L127.655 224.62C127.483 225.063 127.22 225.466 126.882 225.802C126.544 226.137 126.139 226.398 125.694 226.567L125.672 226.576C125.229 226.739 124.758 226.808 124.288 226.78C123.818 226.751 123.358 226.625 122.939 226.409L106.993 218.138L101.876 215.483C101.169 215.118 100.613 214.515 100.308 213.78C100.003 213.045 99.9671 212.226 100.208 211.467L102.773 203.304L109.301 182.557C109.454 182.075 109.714 181.633 110.06 181.264C110.407 180.895 110.832 180.609 111.303 180.425C111.775 180.242 112.282 180.167 112.787 180.205C113.291 180.243 113.781 180.394 114.22 180.646L136.523 193.551C137.222 193.951 137.754 194.589 138.023 195.348C138.292 196.107 138.28 196.937 137.989 197.688Z" fill="white"/>
<path d="M129.496 201.4C129.27 201.4 129.048 201.343 128.849 201.234L113.971 193.121C113.658 192.949 113.425 192.659 113.325 192.316C113.224 191.972 113.264 191.603 113.435 191.289C113.607 190.974 113.896 190.741 114.239 190.639C114.582 190.538 114.952 190.576 115.267 190.747L130.145 198.86C130.409 199.004 130.617 199.232 130.737 199.507C130.857 199.783 130.882 200.091 130.807 200.382C130.733 200.673 130.564 200.931 130.326 201.116C130.089 201.3 129.796 201.4 129.496 201.4H129.496Z" fill="#BAD3F7"/>
<path d="M126.791 207.259C126.565 207.259 126.342 207.202 126.144 207.094L111.266 198.981C110.952 198.808 110.72 198.519 110.619 198.175C110.519 197.832 110.559 197.462 110.73 197.148C110.902 196.834 111.191 196.601 111.534 196.499C111.877 196.397 112.247 196.436 112.561 196.606L127.439 204.719C127.703 204.863 127.912 205.091 128.032 205.367C128.152 205.642 128.177 205.95 128.102 206.241C128.028 206.533 127.859 206.791 127.621 206.975C127.383 207.159 127.091 207.259 126.791 207.259H126.791Z" fill="#BAD3F7"/>
<path d="M124.536 213.569C124.311 213.569 124.088 213.512 123.89 213.404L109.012 205.291C108.698 205.118 108.466 204.829 108.365 204.485C108.265 204.142 108.305 203.773 108.476 203.458C108.647 203.144 108.936 202.911 109.28 202.809C109.623 202.708 109.992 202.746 110.307 202.917L125.185 211.03C125.449 211.174 125.658 211.401 125.778 211.677C125.898 211.953 125.923 212.26 125.848 212.552C125.774 212.843 125.604 213.101 125.367 213.285C125.129 213.47 124.837 213.57 124.536 213.569H124.536Z" fill="#BAD3F7"/>
<path d="M281.871 85.8838H219.325C218.426 85.8828 217.564 85.5253 216.929 84.8898C216.293 84.2542 215.935 83.3925 215.934 82.4937V3.39015C215.935 2.49134 216.293 1.62963 216.929 0.994079C217.564 0.358524 218.426 0.00102237 219.325 0H281.871C282.77 0.00102832 283.632 0.358532 284.268 0.994086C284.903 1.62964 285.261 2.49134 285.262 3.39015V82.4937C285.261 83.3925 284.903 84.2542 284.268 84.8897C283.632 85.5253 282.77 85.8828 281.871 85.8838ZM219.325 0.753369C218.626 0.754152 217.956 1.03221 217.461 1.52653C216.967 2.02085 216.689 2.69107 216.688 3.39015V82.4937C216.689 83.1928 216.967 83.863 217.461 84.3573C217.956 84.8516 218.626 85.1297 219.325 85.1305H281.871C282.57 85.1297 283.241 84.8516 283.735 84.3573C284.23 83.863 284.508 83.1928 284.509 82.4937V3.39015C284.508 2.69107 284.23 2.02085 283.735 1.52653C283.241 1.03221 282.57 0.754154 281.871 0.753369H219.325Z" fill="white"/>
<path d="M245.395 38.023H231.628C231.178 38.0225 230.747 37.8438 230.429 37.526C230.111 37.2082 229.933 36.7774 229.932 36.328V20.0855C229.933 19.6361 230.111 19.2052 230.429 18.8875C230.747 18.5697 231.178 18.3909 231.628 18.3904H245.395C245.845 18.3909 246.276 18.5697 246.594 18.8875C246.911 19.2052 247.09 19.6361 247.091 20.0855V36.328C247.09 36.7774 246.911 37.2082 246.594 37.526C246.276 37.8438 245.845 38.0225 245.395 38.023Z" fill="#BAD3F7"/>
<path d="M272.147 45.5567H258.379C257.93 45.5562 257.499 45.3775 257.181 45.0597C256.863 44.7419 256.684 44.3111 256.684 43.8617V27.6192C256.684 27.1698 256.863 26.7389 257.181 26.4212C257.499 26.1034 257.93 25.9246 258.379 25.9241H272.147C272.596 25.9246 273.027 26.1034 273.345 26.4212C273.663 26.7389 273.842 27.1698 273.842 27.6192V43.8617C273.842 44.3111 273.663 44.7419 273.345 45.0597C273.027 45.3775 272.596 45.5562 272.147 45.5567Z" fill="#CCCCCC"/>
<path d="M250.67 68.5345H236.903C236.453 68.534 236.022 68.3552 235.704 68.0374C235.386 67.7197 235.208 67.2888 235.207 66.8394V50.5969C235.208 50.1475 235.386 49.7167 235.704 49.3989C236.022 49.0811 236.453 48.9024 236.903 48.9019H250.67C251.12 48.9024 251.551 49.0811 251.869 49.3989C252.187 49.7167 252.365 50.1475 252.366 50.5969V66.8394C252.365 67.2888 252.187 67.7197 251.869 68.0374C251.551 68.3552 251.12 68.534 250.67 68.5345Z" fill="#FF6584"/>
<path d="M200.285 64.5029C200.025 63.8856 199.589 63.3581 199.032 62.9855C198.475 62.613 197.822 62.4119 197.152 62.407H134.605C133.706 62.4075 132.844 62.7647 132.208 63.4003C131.573 64.0358 131.215 64.8977 131.215 65.7965V144.9C131.215 145.799 131.573 146.661 132.208 147.296C132.844 147.932 133.706 148.289 134.605 148.29H197.152C198.05 148.288 198.912 147.931 199.548 147.295C200.183 146.66 200.541 145.799 200.542 144.9V65.7965C200.543 65.3525 200.456 64.9126 200.285 64.5029ZM199.789 144.9C199.788 145.599 199.51 146.269 199.016 146.764C198.521 147.258 197.851 147.536 197.152 147.537H134.605C133.906 147.537 133.235 147.259 132.74 146.764C132.246 146.27 131.968 145.599 131.968 144.9V65.7965C131.969 65.0974 132.247 64.4273 132.741 63.933C133.236 63.4387 133.906 63.1606 134.605 63.1597H197.152C197.678 63.1617 198.193 63.3206 198.629 63.616C199.065 63.9114 199.403 64.33 199.6 64.8184C199.638 64.9157 199.671 65.015 199.699 65.1159C199.759 65.3378 199.789 65.5666 199.789 65.7965V144.9Z" fill="white"/>
<path d="M187.231 81.0835H168.391C167.992 81.0835 167.608 80.9247 167.326 80.6422C167.043 80.3596 166.884 79.9764 166.884 79.5767C166.884 79.1771 167.043 78.7939 167.326 78.5113C167.608 78.2287 167.992 78.07 168.391 78.07H187.231C187.63 78.07 188.014 78.2287 188.296 78.5113C188.579 78.7939 188.738 79.1771 188.738 79.5767C188.738 79.9764 188.579 80.3596 188.296 80.6422C188.014 80.9247 187.63 81.0835 187.231 81.0835Z" fill="white"/>
<path d="M187.231 88.9938H168.391C167.992 88.9938 167.608 88.8351 167.326 88.5525C167.043 88.2699 166.884 87.8867 166.884 87.4871C166.884 87.0875 167.043 86.7042 167.326 86.4217C167.608 86.1391 167.992 85.9803 168.391 85.9803H187.231C187.63 85.9803 188.014 86.1391 188.296 86.4217C188.579 86.7042 188.738 87.0875 188.738 87.4871C188.738 87.8867 188.579 88.2699 188.296 88.5525C188.014 88.8351 187.63 88.9938 187.231 88.9938Z" fill="white"/>
<path d="M158.725 93.498H144.957C144.508 93.4975 144.077 93.3188 143.759 93.001C143.441 92.6832 143.262 92.2524 143.262 91.803V75.5605C143.262 75.1111 143.441 74.6802 143.759 74.3625C144.077 74.0447 144.508 73.8659 144.957 73.8654H158.725C159.174 73.8659 159.605 74.0447 159.923 74.3625C160.241 74.6802 160.42 75.1111 160.42 75.5605V91.803C160.42 92.2524 160.241 92.6832 159.923 93.001C159.605 93.3188 159.174 93.4975 158.725 93.498Z" fill="#BAD3F7"/>
<path d="M187.1 105.191H144.524C144.325 105.192 144.129 105.153 143.946 105.077C143.763 105.002 143.596 104.891 143.456 104.751C143.316 104.611 143.205 104.445 143.129 104.262C143.053 104.079 143.014 103.883 143.014 103.685C143.014 103.486 143.053 103.29 143.129 103.107C143.205 102.924 143.316 102.758 143.456 102.618C143.596 102.478 143.763 102.367 143.946 102.292C144.129 102.216 144.325 102.177 144.524 102.178H187.1C187.499 102.178 187.882 102.338 188.164 102.62C188.446 102.903 188.604 103.285 188.604 103.685C188.604 104.084 188.446 104.467 188.164 104.749C187.882 105.032 187.499 105.191 187.1 105.191Z" fill="#CCCCCC"/>
<path d="M187.1 113.102H144.524C144.325 113.102 144.129 113.063 143.946 112.988C143.763 112.912 143.596 112.801 143.456 112.661C143.316 112.521 143.205 112.355 143.129 112.172C143.053 111.989 143.014 111.793 143.014 111.595C143.014 111.397 143.053 111.201 143.129 111.018C143.205 110.835 143.316 110.668 143.456 110.529C143.596 110.389 143.763 110.278 143.946 110.202C144.129 110.127 144.325 110.088 144.524 110.088H187.1C187.5 110.088 187.883 110.247 188.166 110.529C188.448 110.812 188.607 111.195 188.607 111.595C188.607 111.994 188.448 112.378 188.166 112.66C187.883 112.943 187.5 113.102 187.1 113.102Z" fill="#CCCCCC"/>
<path d="M187.1 121.012H144.524C144.325 121.012 144.129 120.974 143.946 120.898C143.763 120.822 143.596 120.711 143.456 120.572C143.316 120.432 143.205 120.265 143.129 120.082C143.053 119.899 143.014 119.703 143.014 119.505C143.014 119.307 143.053 119.111 143.129 118.928C143.205 118.745 143.316 118.579 143.456 118.439C143.596 118.299 143.763 118.188 143.946 118.112C144.129 118.037 144.325 117.998 144.524 117.998H187.1C187.5 117.998 187.883 118.157 188.166 118.44C188.448 118.722 188.607 119.106 188.607 119.505C188.607 119.905 188.448 120.288 188.166 120.571C187.883 120.853 187.5 121.012 187.1 121.012Z" fill="#CCCCCC"/>
<path d="M187.1 128.922H144.524C144.325 128.923 144.129 128.884 143.946 128.808C143.763 128.733 143.596 128.622 143.456 128.482C143.316 128.342 143.205 128.176 143.129 127.993C143.053 127.81 143.014 127.614 143.014 127.416C143.014 127.217 143.053 127.021 143.129 126.838C143.205 126.655 143.316 126.489 143.456 126.349C143.596 126.209 143.763 126.098 143.946 126.023C144.129 125.947 144.325 125.908 144.524 125.909H187.1C187.5 125.909 187.883 126.068 188.166 126.35C188.448 126.633 188.607 127.016 188.607 127.416C188.607 127.815 188.448 128.198 188.166 128.481C187.883 128.764 187.5 128.922 187.1 128.922Z" fill="#CCCCCC"/>
<path d="M187.1 136.833H144.524C144.325 136.833 144.129 136.794 143.946 136.719C143.763 136.643 143.596 136.532 143.456 136.392C143.316 136.252 143.205 136.086 143.129 135.903C143.053 135.72 143.014 135.524 143.014 135.326C143.014 135.128 143.053 134.932 143.129 134.749C143.205 134.566 143.316 134.4 143.456 134.26C143.596 134.12 143.763 134.009 143.946 133.933C144.129 133.858 144.325 133.819 144.524 133.819H187.1C187.499 133.82 187.882 133.979 188.164 134.261C188.446 134.544 188.604 134.927 188.604 135.326C188.604 135.725 188.446 136.108 188.164 136.39C187.882 136.673 187.499 136.832 187.1 136.833Z" fill="#CCCCCC"/>
<path d="M247.694 94.5229L212.038 128.461L212.558 129.006L248.214 95.0686L247.694 94.5229Z" fill="#E6E6E6"/>
<path d="M211.705 129.296L216.231 129.243L216.223 128.489L212.507 128.534L212.734 124.826L211.981 124.78L211.705 129.296Z" fill="#E6E6E6"/>
<path d="M248.545 94.2314L248.27 98.7478L247.517 98.7027L247.744 94.9945L244.029 95.0392L244.02 94.2855L248.545 94.2314Z" fill="#E6E6E6"/>
<path d="M230.126 115.908C232.415 115.908 234.271 114.053 234.271 111.764C234.271 109.476 232.415 107.621 230.126 107.621C227.837 107.621 225.981 109.476 225.981 111.764C225.981 114.053 227.837 115.908 230.126 115.908Z" fill="#E6E6E6"/>
<path d="M199.904 14.2925L164.248 48.2302L164.768 48.7759L200.424 14.8382L199.904 14.2925Z" fill="#E6E6E6"/>
<path d="M163.915 49.0658L168.441 49.0126L168.433 48.2586L164.717 48.3032L164.944 44.5955L164.191 44.5499L163.915 49.0658Z" fill="#E6E6E6"/>
<path d="M200.755 14.0011L200.48 18.5174L199.727 18.4724L199.954 14.7642L196.238 14.8088L196.23 14.0552L200.755 14.0011Z" fill="#E6E6E6"/>
<path d="M182.336 35.6777C184.625 35.6777 186.48 33.8225 186.48 31.5341C186.48 29.2457 184.625 27.3906 182.336 27.3906C180.047 27.3906 178.191 29.2457 178.191 31.5341C178.191 33.8225 180.047 35.6777 182.336 35.6777Z" fill="#E6E6E6"/>
<path d="M342.616 234.793H341.714V238.849H342.616V234.793Z" fill="#3F3D56"/>
</g>
<defs>
<clipPath id="clip0_121_381">
<rect width="403" height="291" fill="white"/>
</clipPath>
</defs>
</svg>
