<svg width="450" height="279" viewBox="0 0 450 279" fill="none" xmlns="http://www.w3.org/2000/svg">
<g clip-path="url(#clip0_121_295)">
<path d="M31.2288 258.45C33.2809 259.172 35.4843 259.353 37.6266 258.975C39.7689 258.598 41.7779 257.674 43.46 256.293C47.744 252.692 49.0888 246.761 50.18 241.269L53.4124 225.024L46.645 229.69C41.7781 233.045 36.8019 236.508 33.4318 241.369C30.0618 246.229 28.591 252.864 31.2984 258.123" fill="#E6E6E6"/>
<path d="M31.8073 278.118C31.1224 273.122 30.4179 268.062 30.8983 263.013C31.3252 258.529 32.6912 254.149 35.4733 250.557C36.9499 248.655 38.7466 247.025 40.7827 245.74C41.3139 245.405 41.8021 246.247 41.2737 246.581C37.7508 248.81 35.026 252.102 33.492 255.982C31.7978 260.297 31.5259 265 31.8201 269.583C31.9968 272.355 32.3707 275.107 32.748 277.858C32.7784 277.983 32.7601 278.114 32.6969 278.226C32.6337 278.337 32.5304 278.42 32.4081 278.458C32.2836 278.491 32.151 278.474 32.0389 278.411C31.9268 278.347 31.8444 278.242 31.8095 278.117L31.8073 278.118Z" fill="#F2F2F2"/>
<path d="M167.527 170.484C167.03 170.721 166.489 170.848 165.938 170.859L114.885 172.262C112.76 172.308 110.704 171.507 109.169 170.035C107.634 168.563 106.745 166.541 106.699 164.414C106.653 162.286 107.453 160.227 108.922 158.69C110.392 157.153 112.412 156.263 114.537 156.217L165.59 154.814C166.624 154.793 167.625 155.183 168.372 155.899C169.119 156.615 169.552 157.599 169.575 158.634L169.754 166.868C169.77 167.622 169.568 168.364 169.173 169.005C168.778 169.646 168.206 170.16 167.527 170.484Z" fill="#BAD3F7"/>
<path d="M102.02 278.222H93.7942C92.7599 278.221 91.7683 277.809 91.037 277.077C90.3056 276.344 89.8942 275.352 89.8931 274.316V205.672C89.8942 204.636 90.3056 203.643 91.037 202.911C91.7683 202.179 92.7599 201.767 93.7942 201.766H102.02C103.054 201.767 104.046 202.179 104.777 202.911C105.508 203.643 105.92 204.636 105.921 205.672V274.316C105.92 275.352 105.508 276.344 104.777 277.077C104.046 277.809 103.054 278.221 102.02 278.222Z" fill="#BAD3F7"/>
<path d="M123.862 278.222H115.637C114.602 278.221 113.611 277.809 112.879 277.077C112.148 276.344 111.737 275.352 111.735 274.316V205.672C111.737 204.636 112.148 203.643 112.879 202.911C113.611 202.179 114.602 201.767 115.637 201.766H123.862C124.897 201.767 125.888 202.179 126.62 202.911C127.351 203.643 127.762 204.636 127.763 205.672V274.316C127.762 275.352 127.351 276.344 126.62 277.077C125.888 277.809 124.897 278.221 123.862 278.222Z" fill="#BAD3F7"/>
<path d="M109.631 130.407C125.329 130.407 138.054 117.666 138.054 101.948C138.054 86.2308 125.329 73.4893 109.631 73.4893C93.9338 73.4893 81.2085 86.2308 81.2085 101.948C81.2085 117.666 93.9338 130.407 109.631 130.407Z" fill="#BAD3F7"/>
<path d="M119.279 226.107H98.8318C94.5826 226.123 90.4047 225.015 86.7208 222.895C83.037 220.774 79.9779 217.717 77.8534 214.033C75.7288 210.348 74.6141 206.167 74.6221 201.912C74.6301 197.658 75.7606 193.481 77.899 189.804L106.494 140.213C106.812 139.662 107.269 139.204 107.82 138.886C108.371 138.567 108.995 138.4 109.631 138.4C110.267 138.4 110.892 138.567 111.443 138.886C111.993 139.204 112.451 139.662 112.768 140.213L140.788 188.806C142.968 192.586 144.115 196.874 144.115 201.24C144.115 205.605 142.967 209.893 140.788 213.673C138.608 217.454 135.473 220.593 131.697 222.775C127.922 224.958 123.639 226.107 119.279 226.107Z" fill="#2F2E41"/>
<path d="M116.34 113.895C118.182 113.844 120.475 113.78 122.242 112.487C122.768 112.087 123.2 111.576 123.508 110.991C123.816 110.405 123.993 109.76 124.025 109.099C124.057 108.629 123.98 108.158 123.8 107.723C123.62 107.289 123.343 106.901 122.988 106.592C122.066 105.811 120.718 105.628 119.267 106.055L120.771 95.0478L119.667 94.8963L117.898 107.837L118.82 107.413C119.889 106.922 121.357 106.672 122.269 107.444C122.493 107.646 122.667 107.896 122.779 108.176C122.89 108.457 122.935 108.759 122.911 109.06C122.884 109.551 122.752 110.032 122.523 110.468C122.294 110.904 121.974 111.285 121.584 111.586C120.21 112.592 118.382 112.721 116.309 112.779L116.34 113.895Z" fill="#2F2E41"/>
<path d="M132.235 95.9971H126.232V97.1131H132.235V95.9971Z" fill="#2F2E41"/>
<path d="M113.287 95.9971H107.283V97.1131H113.287V95.9971Z" fill="#2F2E41"/>
<path d="M102.946 219.742C102.71 219.244 102.582 218.702 102.572 218.151L101.171 167.033C101.125 164.905 101.924 162.846 103.394 161.309C104.864 159.772 106.884 158.883 109.009 158.836C111.134 158.79 113.19 159.591 114.725 161.063C116.26 162.534 117.149 164.557 117.195 166.684L118.596 217.803C118.617 218.838 118.228 219.84 117.512 220.588C116.797 221.336 115.815 221.769 114.781 221.793L106.557 221.972C105.805 221.987 105.064 221.785 104.423 221.39C103.783 220.994 103.27 220.422 102.946 219.742Z" fill="#BAD3F7"/>
<path d="M106.994 80.9112C110.447 85.433 115.929 88.4664 121.723 87.7482C127.241 87.0642 131.793 83.2136 132.935 77.7008C133.433 75.0944 133.299 72.4062 132.543 69.8627C131.786 67.3192 130.431 64.995 128.59 63.086C124.684 58.9732 119.095 56.7609 113.563 56.0022C103.083 54.5651 92.3199 58.2614 84.3961 65.155C80.4168 68.5822 77.2406 72.8451 75.0932 77.6407C73.0247 82.4008 72.0395 87.5621 72.2091 92.7505C72.5136 103.004 76.9992 113.238 84.7389 120.038C85.7002 120.88 86.7063 121.669 87.7529 122.402C88.6356 123.022 89.472 121.571 88.5968 120.956C80.6707 115.389 75.615 106.33 74.2275 96.8116C73.5007 92.0158 73.8248 87.119 75.1772 82.4611C76.5296 77.8031 78.8779 73.4956 82.0592 69.8372C88.4594 62.5506 97.8437 57.8146 107.563 57.3902C117.343 56.9632 129.565 61.3351 131.395 72.2359C132.216 77.1218 130.392 82.2575 125.92 84.7036C121.133 87.3225 115.262 86.2447 111.148 82.8625C110.14 82.0375 109.231 81.0993 108.438 80.0663C107.793 79.2219 106.34 80.0549 106.994 80.9112H106.994Z" fill="#2F2E41"/>
<path d="M394.604 6.60475L153.455 41.4849L169.986 156.06L411.135 121.18L394.604 6.60475Z" fill="#F1F1F1"/>
<path d="M389.126 17.4272L161.769 50.3126L175.56 145.906L402.918 113.021L389.126 17.4272Z" fill="white"/>
<path d="M393.547 -4.42651e-05L152.397 34.8801L153.877 45.1379L395.026 10.2577L393.547 -4.42651e-05Z" fill="#E5E5E5"/>
<path d="M160.881 41.7318C161.94 41.7318 162.799 40.8717 162.799 39.8108C162.799 38.7499 161.94 37.8898 160.881 37.8898C159.821 37.8898 158.962 38.7499 158.962 39.8108C158.962 40.8717 159.821 41.7318 160.881 41.7318Z" fill="white"/>
<path d="M168.088 40.6893C169.148 40.6893 170.007 39.8293 170.007 38.7683C170.007 37.7074 169.148 36.8474 168.088 36.8474C167.029 36.8474 166.17 37.7074 166.17 38.7683C166.17 39.8293 167.029 40.6893 168.088 40.6893Z" fill="white"/>
<path d="M175.296 39.6468C176.355 39.6468 177.214 38.7867 177.214 37.7258C177.214 36.6649 176.355 35.8048 175.296 35.8048C174.236 35.8048 173.377 36.6649 173.377 37.7258C173.377 38.7867 174.236 39.6468 175.296 39.6468Z" fill="white"/>
<path d="M450 55.9039H206.348V171.668H450V55.9039Z" fill="#E6E6E6"/>
<path d="M443.033 65.8309H213.315V162.417H443.033V65.8309Z" fill="white"/>
<path d="M449.896 49.2155H206.244V59.5798H449.896V49.2155Z" fill="#CBCBCB"/>
<path d="M213.936 57.2309C214.996 57.2309 215.855 56.3709 215.855 55.31C215.855 54.249 214.996 53.389 213.936 53.389C212.877 53.389 212.018 54.249 212.018 55.31C212.018 56.3709 212.877 57.2309 213.936 57.2309Z" fill="white"/>
<path d="M221.218 57.2309C222.278 57.2309 223.137 56.3709 223.137 55.31C223.137 54.249 222.278 53.389 221.218 53.389C220.159 53.389 219.3 54.249 219.3 55.31C219.3 56.3709 220.159 57.2309 221.218 57.2309Z" fill="white"/>
<path d="M228.501 57.2309C229.56 57.2309 230.419 56.3709 230.419 55.31C230.419 54.249 229.56 53.389 228.501 53.389C227.441 53.389 226.582 54.249 226.582 55.31C226.582 56.3709 227.441 57.2309 228.501 57.2309Z" fill="white"/>
<path d="M378.038 80.5156H345.685V82.9504H378.038V80.5156Z" fill="#E6E6E6"/>
<path d="M395.645 87.6633H345.685V90.0981H395.645V87.6633Z" fill="#E6E6E6"/>
<path d="M386.921 94.4707H346.205V96.9055H386.921V94.4707Z" fill="#E6E6E6"/>
<path d="M369.455 101.94H345.685V104.375H369.455V101.94Z" fill="#E6E6E6"/>
<path d="M381.56 109.236H345.685V111.671H381.56V109.236Z" fill="#E6E6E6"/>
<path d="M334.901 79.7496H330.939V83.7163H334.901V79.7496Z" fill="#E6E6E6"/>
<path d="M334.901 86.8975H330.939V90.8641H334.901V86.8975Z" fill="#E6E6E6"/>
<path d="M334.901 93.7048H330.939V97.6714H334.901V93.7048Z" fill="#E6E6E6"/>
<path d="M334.901 101.174H330.939V105.141H334.901V101.174Z" fill="#E6E6E6"/>
<path d="M334.901 108.47H330.939V112.436H334.901V108.47Z" fill="#E6E6E6"/>
<path d="M378.038 116.577H345.685V119.012H378.038V116.577Z" fill="#E6E6E6"/>
<path d="M395.645 123.725H345.685V126.16H395.645V123.725Z" fill="#E6E6E6"/>
<path d="M386.921 130.532H346.205V132.967H386.921V130.532Z" fill="#E6E6E6"/>
<path d="M369.455 138.002H345.685V140.436H369.455V138.002Z" fill="#E6E6E6"/>
<path d="M381.56 145.297H345.685V147.732H381.56V145.297Z" fill="#E6E6E6"/>
<path d="M334.901 115.811H330.939V119.778H334.901V115.811Z" fill="#E6E6E6"/>
<path d="M334.901 122.959H330.939V126.926H334.901V122.959Z" fill="#E6E6E6"/>
<path d="M334.901 129.766H330.939V133.733H334.901V129.766Z" fill="#E6E6E6"/>
<path d="M334.901 137.236H330.939V141.202H334.901V137.236Z" fill="#E6E6E6"/>
<path d="M334.901 144.531H330.939V148.498H334.901V144.531Z" fill="#E6E6E6"/>
<path d="M275.69 135.676H243.337V138.111H275.69V135.676Z" fill="#E6E6E6"/>
<path d="M279.725 142.003H239.009V144.437H279.725V142.003Z" fill="#E6E6E6"/>
<path d="M280.542 104.962C280.54 108.621 279.591 112.218 277.787 115.4C275.983 118.583 273.385 121.242 270.247 123.119C267.11 124.996 263.54 126.026 259.886 126.108C256.232 126.191 252.619 125.323 249.4 123.59L249.396 123.585C246.108 121.812 243.349 119.197 241.399 116.008C239.449 112.819 238.378 109.169 238.295 105.431C238.213 101.692 239.121 97.9985 240.929 94.7262C242.736 91.4538 245.378 88.7197 248.584 86.8024C251.791 84.8851 255.447 83.8531 259.182 83.8117C262.916 83.7702 266.595 84.7208 269.843 86.5664C273.091 88.4121 275.792 91.087 277.672 94.3184C279.551 97.5499 280.542 101.222 280.542 104.962V104.962Z" fill="#E6E6E6"/>
<path d="M259.525 103.935C262.696 103.935 265.267 101.361 265.267 98.1851C265.267 95.0095 262.696 92.4352 259.525 92.4352C256.353 92.4352 253.782 95.0095 253.782 98.1851C253.782 101.361 256.353 103.935 259.525 103.935Z" fill="white"/>
<path d="M269.33 115.816C262.91 118.072 255.91 118.045 249.508 115.739L249.504 115.736L253.782 107.28H265.267L269.33 115.816Z" fill="white"/>
<path d="M195.944 157.464C185.935 157.464 177.791 148.803 177.791 138.156C177.791 127.51 185.935 118.849 195.944 118.849C205.953 118.849 214.096 127.51 214.096 138.156C214.096 148.803 205.953 157.464 195.944 157.464ZM195.944 123.727C188.621 123.727 182.664 130.2 182.664 138.156C182.664 146.113 188.621 152.586 195.944 152.586C203.267 152.586 209.224 146.113 209.224 138.156C209.224 130.2 203.267 123.727 195.944 123.727Z" fill="#BAD3F7"/>
<path d="M213.134 191.112H178.754C175.722 191.109 172.816 189.901 170.672 187.755C168.528 185.609 167.322 182.698 167.319 179.663V145.897C167.321 143.819 168.147 141.826 169.614 140.357C171.082 138.887 173.072 138.061 175.148 138.058H216.74C218.816 138.061 220.806 138.887 222.273 140.357C223.741 141.826 224.566 143.819 224.569 145.897V179.663C224.565 182.698 223.359 185.609 221.216 187.755C219.072 189.901 216.165 191.109 213.134 191.112Z" fill="#3F3D56"/>
<path d="M202.643 157.267C202.644 156.075 202.328 154.904 201.726 153.875C201.125 152.845 200.26 151.995 199.222 151.412C198.183 150.829 197.008 150.533 195.817 150.556C194.626 150.578 193.463 150.918 192.447 151.54C191.431 152.163 190.6 153.045 190.038 154.096C189.475 155.147 189.203 156.33 189.249 157.521C189.295 158.713 189.658 159.871 190.299 160.875C190.941 161.88 191.838 162.695 192.899 163.237V173.732H198.989V163.237C200.089 162.676 201.012 161.822 201.657 160.768C202.302 159.715 202.643 158.503 202.643 157.267Z" fill="white"/>
<path d="M212.892 279H0.557308C0.409501 279 0.267747 278.941 0.163231 278.837C0.0587158 278.732 0 278.59 0 278.442C0 278.294 0.0587158 278.152 0.163231 278.047C0.267747 277.943 0.409501 277.884 0.557308 277.884H212.892C213.039 277.884 213.181 277.943 213.286 278.047C213.39 278.152 213.449 278.294 213.449 278.442C213.449 278.59 213.39 278.732 213.286 278.837C213.181 278.941 213.039 279 212.892 279Z" fill="#3F3D56"/>
</g>
<defs>
<clipPath id="clip0_121_295">
<rect width="450" height="279" fill="white"/>
</clipPath>
</defs>
</svg>
