<svg width="25" height="25" viewBox="0 0 25 25" fill="none" xmlns="http://www.w3.org/2000/svg">
<path d="M8.33333 3.125C5.45729 3.125 3.125 5.45729 3.125 8.33333V16.6667C3.125 19.5427 5.45729 21.875 8.33333 21.875H16.6667C19.5427 21.875 21.875 19.5427 21.875 16.6667V8.33333C21.875 5.45729 19.5427 3.125 16.6667 3.125H8.33333ZM18.75 5.20833C19.325 5.20833 19.7917 5.675 19.7917 6.25C19.7917 6.825 19.325 7.29167 18.75 7.29167C18.175 7.29167 17.7083 6.825 17.7083 6.25C17.7083 5.675 18.175 5.20833 18.75 5.20833ZM12.5 7.29167C15.376 7.29167 17.7083 9.62396 17.7083 12.5C17.7083 15.376 15.376 17.7083 12.5 17.7083C9.62396 17.7083 7.29167 15.376 7.29167 12.5C7.29167 9.62396 9.62396 7.29167 12.5 7.29167ZM12.5 9.375C11.6712 9.375 10.8763 9.70424 10.2903 10.2903C9.70424 10.8763 9.375 11.6712 9.375 12.5C9.375 13.3288 9.70424 14.1237 10.2903 14.7097C10.8763 15.2958 11.6712 15.625 12.5 15.625C13.3288 15.625 14.1237 15.2958 14.7097 14.7097C15.2958 14.1237 15.625 13.3288 15.625 12.5C15.625 11.6712 15.2958 10.8763 14.7097 10.2903C14.1237 9.70424 13.3288 9.375 12.5 9.375Z" fill="#E2EEFF"/>
</svg>
