<svg width="23" height="23" viewBox="0 0 23 23" fill="none" xmlns="http://www.w3.org/2000/svg">
<g clip-path="url(#clip0_125_486)">
<path d="M23.0288 4.80121C22.1788 5.17855 21.2678 5.43191 20.3101 5.54691C21.2876 4.96113 22.0387 4.03394 22.3909 2.93066C21.4781 3.47152 20.4628 3.86503 19.3865 4.07707C18.524 3.15707 17.2949 2.58386 15.9347 2.58386C13.322 2.58386 11.2035 4.70058 11.2035 7.31324C11.2035 7.68339 11.2466 8.04456 11.3275 8.39136C7.39594 8.19371 3.9118 6.31058 1.57766 3.44816C1.16977 4.14894 0.937975 4.96113 0.937975 5.82722C0.937975 7.46777 1.77172 8.91605 3.04212 9.76597C2.26587 9.74081 1.53633 9.52699 0.898444 9.173C0.898444 9.19277 0.898444 9.21253 0.898444 9.2323C0.898444 11.5251 2.53001 13.4352 4.69165 13.8718C4.29633 13.9796 3.87766 14.0371 3.44641 14.0371C3.14094 14.0371 2.84446 14.0084 2.55516 13.9509C3.15891 15.8286 4.90548 17.1996 6.97368 17.2374C5.35649 18.506 3.31704 19.2607 1.09969 19.2607C0.716959 19.2607 0.341413 19.2391 -0.026947 19.1942C2.06462 20.5382 4.55149 21.3199 7.22344 21.3199C15.9239 21.3199 20.682 14.1126 20.682 7.86308C20.682 7.65824 20.6766 7.4516 20.6695 7.25035C21.5931 6.58371 22.3945 5.74996 23.0288 4.80121Z" fill="#E2EEFF"/>
</g>
<defs>
<clipPath id="clip0_125_486">
<rect width="23" height="23" fill="white"/>
</clipPath>
</defs>
</svg>
