<svg width="25" height="25" viewBox="0 0 25 25" fill="none" xmlns="http://www.w3.org/2000/svg">
<path d="M20.5 2H4.5C3.1215 2 2 3.1215 2 4.5V20.5C2 21.8785 3.1215 23 4.5 23H20.5C21.8785 23 23 21.8785 23 20.5V4.5C23 3.1215 21.8785 2 20.5 2ZM18.503 11.1615C18.3895 11.172 18.2745 11.179 18.158 11.179C16.8465 11.179 15.694 10.5045 15.0235 9.485C15.0235 12.1595 15.0235 15.2025 15.0235 15.2535C15.0235 17.608 13.1145 19.517 10.76 19.517C8.4055 19.517 6.4965 17.608 6.4965 15.2535C6.4965 12.899 8.4055 10.99 10.76 10.99C10.849 10.99 10.936 10.998 11.0235 11.0035V13.1045C10.936 13.094 10.85 13.078 10.76 13.078C9.558 13.078 8.584 14.052 8.584 15.254C8.584 16.456 9.558 17.43 10.76 17.43C11.962 17.43 13.0235 16.483 13.0235 15.281C13.0235 15.2335 13.0445 5.484 13.0445 5.484H15.0525C15.2415 7.2795 16.691 8.6965 18.503 8.8265V11.1615Z" fill="#E2EEFF"/>
</svg>
