<svg width="25" height="27" viewBox="0 0 25 27" fill="none" xmlns="http://www.w3.org/2000/svg">
<path d="M20.5 2.08569H4.5C3.12 2.08569 2 3.25368 2 4.69281V21.3784C2 22.8175 3.12 23.9855 4.5 23.9855H20.5C21.88 23.9855 23 22.8175 23 21.3784V4.69281C23 3.25368 21.88 2.08569 20.5 2.08569ZM8.5 10.4285V20.3355H5.5V10.4285H8.5ZM5.5 7.545C5.5 6.81501 6.1 6.25708 7 6.25708C7.9 6.25708 8.465 6.81501 8.5 7.545C8.5 8.275 7.94 8.8642 7 8.8642C6.1 8.8642 5.5 8.275 5.5 7.545ZM19.5 20.3355H16.5C16.5 20.3355 16.5 15.5071 16.5 15.1213C16.5 14.0784 16 13.0356 14.75 13.0147H14.71C13.5 13.0147 13 14.0889 13 15.1213C13 15.5958 13 20.3355 13 20.3355H10V10.4285H13V11.7633C13 11.7633 13.965 10.4285 15.905 10.4285C17.89 10.4285 19.5 11.852 19.5 14.7354V20.3355Z" fill="#E2EEFF"/>
</svg>
