<svg width="25" height="27" viewBox="0 0 25 27" fill="none" xmlns="http://www.w3.org/2000/svg">
<path d="M20.5 2.08569H4.5C3.12 2.08569 2 3.25368 2 4.69281V21.3784C2 22.8175 3.12 23.9855 4.5 23.9855H20.5C21.88 23.9855 23 22.8175 23 21.3784V4.69281C23 3.25368 21.88 2.08569 20.5 2.08569ZM18.5 9.90705H17.5C16.43 9.90705 16 10.1678 16 10.9499V12.5142H18.5L18 15.1213H16V22.9426H13.5V15.1213H11.5V12.5142H13.5V10.9499C13.5 8.8642 14.5 7.29993 16.5 7.29993C17.95 7.29993 18.5 7.82136 18.5 7.82136V9.90705Z" fill="#E2EEFF"/>
</svg>
